<?xml version="1.0" encoding="utf-8"?>
<!-- Generator: Adobe Illustrator 16.0.0, SVG Export Plug-In . SVG Version: 6.00 Build 0)  -->
<!DOCTYPE svg PUBLIC "-//W3C//DTD SVG 1.1//EN" "http://www.w3.org/Graphics/SVG/1.1/DTD/svg11.dtd">
<svg version="1.1" id="图层_3" xmlns="http://www.w3.org/2000/svg" xmlns:xlink="http://www.w3.org/1999/xlink" x="0px" y="0px"
	 width="192px" height="192px" viewBox="0 0 192 192" enable-background="new 0 0 192 192" xml:space="preserve">
<g display="none">
	<path display="inline" fill="#3C8CEA" d="M117.189,8.125h-74c-6.216,0-11.25,5.034-11.25,11.25v153.25
		c0,6.215,5.034,11.25,11.25,11.25h104.75c6.215,0,11.25-5.035,11.25-11.25v-122.5L117.189,8.125z"/>
	<polygon display="inline" fill="#2D6FE4" points="119.172,48 158.732,84 159.189,50.125 	"/>
	<path display="inline" fill="#A5C5F9" d="M117.189,8.125v35c0,3.866,3.135,7,7,7h35L117.189,8.125z"/>
</g>
<path fill="#4285F4" d="M29.61,20v18.969h132.781V20H29.61z M29.61,114.844h37.937v56.906h56.906v-56.906h37.938L96,48.453
	L29.61,114.844z"/>
</svg>
